<?xml version="1.0" standalone="no"?>
<!DOCTYPE svg PUBLIC "-//W3C//DTD SVG 20010904//EN"
 "http://www.w3.org/TR/2001/REC-SVG-20010904/DTD/svg10.dtd">
<svg version="1.0" xmlns="http://www.w3.org/2000/svg"
 width="512.000000pt" height="512.000000pt" viewBox="0 0 512.000000 512.000000"
 preserveAspectRatio="xMidYMid meet">
<metadata>
Created by potrace 1.14, written by Peter Selinger 2001-2017
</metadata>
<g transform="translate(0.000000,512.000000) scale(0.100000,-0.100000)"
fill="#000000" stroke="none">
<path d="M2197 4694 c-1 -1 -42 -4 -92 -8 -49 -3 -101 -8 -115 -11 -13 -3 -42
-7 -65 -10 -190 -28 -462 -133 -646 -250 -224 -144 -440 -360 -559 -560 -13
-22 -27 -42 -30 -45 -14 -12 -131 -262 -158 -340 -34 -95 -67 -215 -76 -274
-4 -21 -8 -48 -11 -60 -15 -70 -22 -334 -11 -391 2 -11 7 -43 11 -72 4 -29 16
-85 26 -125 11 -40 21 -80 23 -88 11 -42 82 -194 132 -282 33 -58 58 -114 59
-133 1 -19 -17 -114 -41 -212 -24 -98 -45 -203 -47 -233 -6 -106 36 -206 118
-278 72 -63 127 -85 215 -86 87 -1 105 2 293 50 198 50 189 51 345 -39 35 -20
68 -37 72 -37 5 0 -2 24 -15 54 -42 95 -89 257 -110 381 -25 147 -25 416 0
550 29 160 67 284 130 425 36 83 145 276 164 290 3 3 26 32 51 65 91 124 290
302 443 398 100 63 268 139 395 179 293 90 639 97 937 18 86 -23 219 -71 276
-100 22 -12 43 -20 45 -18 1 2 -8 34 -22 72 -135 371 -434 725 -786 926 -180
103 -419 190 -593 215 -22 3 -45 8 -52 10 -21 7 -299 24 -306 19z"/>
<path d="M3198 3415 c-2 -1 -48 -5 -103 -8 -120 -7 -141 -11 -268 -43 -211
-53 -411 -155 -577 -292 -60 -50 -220 -212 -220 -224 0 -3 -6 -13 -14 -21 -32
-32 -111 -159 -156 -252 -104 -211 -151 -417 -151 -655 0 -172 21 -306 72
-462 105 -323 312 -594 592 -776 177 -116 417 -210 602 -236 23 -4 52 -9 65
-11 35 -8 234 -7 295 0 155 18 349 90 490 181 39 26 91 23 227 -12 232 -59
317 -51 412 41 97 93 108 179 52 407 -20 81 -36 159 -36 175 0 15 16 55 35 88
129 222 174 388 173 631 -1 220 -49 416 -154 630 -183 371 -493 641 -879 765
-116 38 -224 58 -340 65 -44 3 -88 6 -97 8 -9 2 -18 3 -20 1z m-538 -1309 c27
-13 57 -40 75 -67 27 -39 30 -52 30 -120 0 -64 -4 -81 -25 -113 -42 -61 -98
-93 -172 -94 -81 -2 -141 27 -183 89 -27 39 -30 52 -30 121 0 69 3 80 31 119
63 86 179 114 274 65z m624 10 c83 -35 131 -118 124 -215 -5 -71 -34 -119 -96
-161 -39 -26 -51 -29 -115 -27 -62 2 -78 6 -116 32 -107 72 -122 240 -31 327
58 55 161 74 234 44z m639 -1 c46 -19 94 -66 113 -110 30 -74 11 -176 -44
-235 -64 -68 -190 -80 -272 -25 -137 93 -112 313 42 375 36 14 122 12 161 -5z"/>
</g>
</svg>
